<?xml version="1.0" encoding="UTF-8"?>
<svg width="200" height="50" viewBox="0 0 200 50" fill="none" xmlns="http://www.w3.org/2000/svg">
  <!-- Dress shape -->
  <path d="M40 5 L25 45 L55 45 L40 5Z" fill="url(#gradient1)" stroke="#2563EB" stroke-width="2"/>
  <!-- Checkmark -->
  <path d="M42 25 L35 35 L30 30" stroke="#ffffff" stroke-width="3" stroke-linecap="round" stroke-linejoin="round"/>
  <!-- Text -->
  <path d="M70 20 Q70 15, 75 15 L80 15 Q85 15, 85 20 L85 35 Q85 40, 80 40 L75 40 Q70 40, 70 35 Z" fill="#2563EB" stroke="none"/>
  <path d="M70 15 L85 15" stroke="#2563EB" stroke-width="2" stroke-linecap="round"/>
  <path d="M90 15 L90 40" stroke="#2563EB" stroke-width="2" stroke-linecap="round"/>
  <path d="M90 15 L105 15 Q110 15, 110 20 L110 25 Q110 30, 105 30 L90 30" stroke="#2563EB" stroke-width="2" stroke-linecap="round" stroke-linejoin="round"/>
  <path d="M115 15 L115 40" stroke="#2563EB" stroke-width="2" stroke-linecap="round"/>
  <path d="M115 27.5 L130 27.5" stroke="#2563EB" stroke-width="2" stroke-linecap="round"/>
  <path d="M130 15 L130 40" stroke="#2563EB" stroke-width="2" stroke-linecap="round"/>
  <path d="M135 15 L135 40" stroke="#2563EB" stroke-width="2" stroke-linecap="round"/>
  <path d="M135 15 L150 15" stroke="#2563EB" stroke-width="2" stroke-linecap="round"/>
  <path d="M135 27.5 L145 27.5" stroke="#2563EB" stroke-width="2" stroke-linecap="round"/>
  <path d="M135 40 L150 40" stroke="#2563EB" stroke-width="2" stroke-linecap="round"/>
  <path d="M155 15 L170 40" stroke="#2563EB" stroke-width="2" stroke-linecap="round"/>
  <path d="M170 15 L155 40" stroke="#2563EB" stroke-width="2" stroke-linecap="round"/>
  
  <!-- Gradient definition -->
  <defs>
    <linearGradient id="gradient1" x1="25" y1="5" x2="55" y2="45" gradientUnits="userSpaceOnUse">
      <stop offset="0" stop-color="#3B82F6"/>
      <stop offset="1" stop-color="#1E40AF"/>
    </linearGradient>
  </defs>
</svg>